{"title":"The Edge 1997 DVD9rip English Klam","uid":5931469,"size":1893342735,"categoryP":"video","categoryS":"movies","magnet":"?xt=urn:btih:3f1e02d9588d0944f4495e00590712a94a82a995&amp;dn=The+Edge+1997+DVD9rip+English+Klam&amp;tr=udp%3A%2F%2Ftracker.openbittorrent.com%3A80&amp;tr=udp%3A%2F%2Fopen.demonii.com%3A1337&amp;tr=udp%3A%2F%2Ftracker.coppersurfer.tk%3A6969&amp;tr=udp%3A%2F%2Fexodus.desync.com%3A6969","seeders":0,"leechers":1,"uploader":"Klambake","files":-1,"time":1288785379,"description":"With: Anthony Hopkins, Alec Baldwin en Harold Perrineau Jr.\n\nA model has her rich, much older husband come with her to a photo shoot. But when their plane crashes in the middle of nowhere, a strong mind game erupts between the jealous husband and the younger photographer as they try to get back to civilization.\n\nGeneral:\n\nComplete name                    : Klambake\\The Edge\\The Edge.avi\nFormat                           : AVI\nFormat/Info                      : Audio Video Interleave\nFile size                        : 1.76 GiB\nDuration                         : 1h 52mn\nOverall bit rate                 : 2 238 Kbps\n\nVideo:\n\nFormat                           : MPEG-4 Visual\nFormat profile                   : Simple@L3\nFormat settings, BVOP            : No\nFormat settings, QPel            : No\nFormat settings, GMC             : No warppoints\nFormat settings, Matrix          : Default (H.263)\nCodec ID                         : XVID\nCodec ID/Hint                    : XviD\nDuration                         : 1h 52mn\nBit rate                         : 1 843 Kbps\nWidth                            : 720 pixels\nHeight                           : 576 pixels\nDisplay aspect ratio             : 5:4\nFrame rate                       : 25.000 fps\nStandard                         : PAL\nColor space                      : YUV\nChroma subsampling               : 4:2:0\nBit depth                        : 8 bits\nScan type                        : Progressive\nBits/(Pixel*Frame)               : 0.178\nStream size                      : 1.45 GiB (82%)\nWriting library                  : XviD 1.1.2 (UTC 2006-11-01)\n\nAudio:\n\nFormat                           : AC-3\nFormat/Info                      : Audio Coding 3\nMode extension                   : CM (complete main)\nCodec ID                         : 2000\nDuration                         : 1h 52mn\nBit rate mode                    : Constant\nBit rate                         : 384 Kbps\nChannel(s)                       : 6 channels\nChannel positions                : Front: L C R, Side: L R, LFE\nSampling rate                    : 48.0 KHz\nBit depth                        : 16 bits\nStream size                      : 310 MiB (17%)\nAlignment                        : Aligned on interleaves\nInterleave, duration             : 32 ms (0.80 video frame)\nInterleave, preload duration     : 256 ms\n","torrent":{"xt":"urn:btih:3f1e02d9588d0944f4495e00590712a94a82a995","amp;dn":"The+Edge+1997+DVD9rip+English+Klam","amp;tr":["udp%3A%2F%2Ftracker.openbittorrent.com%3A80","udp%3A%2F%2Fopen.demonii.com%3A1337","udp%3A%2F%2Ftracker.coppersurfer.tk%3A6969","udp%3A%2F%2Fexodus.desync.com%3A6969"],"infoHash":"3f1e02d9588d0944f4495e00590712a94a82a995","infoHashBuffer":{"type":"Buffer","data":[63,30,2,217,88,141,9,68,244,73,94,0,89,7,18,169,74,130,169,149]},"announce":[],"urlList":[]}}